<mxfile host="65bd71144e">
    <diagram id="rZUzu4A9gLJFLjXYGfe4" name="Page-1">
        <mxGraphModel dx="1499" dy="633" grid="1" gridSize="10" guides="1" tooltips="1" connect="1" arrows="1" fold="1" page="1" pageScale="1" pageWidth="850" pageHeight="1100" math="0" shadow="0">
            <root>
                <mxCell id="0"/>
                <mxCell id="1" parent="0"/>
                <mxCell id="5" value="TestElementaire" style="swimlane;fontStyle=0;childLayout=stackLayout;horizontal=1;startSize=26;fillColor=none;horizontalStack=0;resizeParent=1;resizeParentMax=0;resizeLast=0;collapsible=1;marginBottom=0;html=1;spacing=1;fontSize=19;spacingTop=0;" vertex="1" parent="1">
                    <mxGeometry x="100" y="80" width="240" height="190" as="geometry"/>
                </mxCell>
                <mxCell id="6" value="lancer()" style="text;strokeColor=none;fillColor=none;align=left;verticalAlign=top;spacingLeft=4;spacingRight=4;overflow=hidden;rotatable=0;points=[[0,0.5],[1,0.5]];portConstraint=eastwest;html=1;spacing=1;fontSize=19;spacingTop=0;" vertex="1" parent="5">
                    <mxGeometry y="26" width="240" height="54" as="geometry"/>
                </mxCell>
                <mxCell id="7" value="prÃ©parer()" style="text;strokeColor=none;fillColor=none;align=left;verticalAlign=top;spacingLeft=4;spacingRight=4;overflow=hidden;rotatable=0;points=[[0,0.5],[1,0.5]];portConstraint=eastwest;html=1;spacing=1;fontSize=19;spacingTop=0;" vertex="1" parent="5">
                    <mxGeometry y="80" width="240" height="50" as="geometry"/>
                </mxCell>
                <mxCell id="8" value="test()" style="text;strokeColor=none;fillColor=none;align=left;verticalAlign=top;spacingLeft=4;spacingRight=4;overflow=hidden;rotatable=0;points=[[0,0.5],[1,0.5]];portConstraint=eastwest;html=1;spacing=1;fontSize=19;spacingTop=0;" vertex="1" parent="5">
                    <mxGeometry y="130" width="240" height="60" as="geometry"/>
                </mxCell>
            </root>
        </mxGraphModel>
    </diagram>
</mxfile>